<svg width="128" height="128" viewBox="0 0 128 128" fill="none" xmlns="http://www.w3.org/2000/svg">
<title>Brevity Extension Icon</title>
<path d="M105.983 66.6L22.1167 86.4769V116.901C22.1171 117.633 22.34 118.351 22.7623 118.982C23.1846 119.612 23.7909 120.132 24.5183 120.486C25.2457 120.841 26.0676 121.018 26.8988 120.999C27.7301 120.979 28.5403 120.765 29.2454 120.377L64.05 101.23L98.8605 120.377C99.5655 120.763 100.375 120.977 101.205 120.995C102.036 121.014 102.857 120.837 103.583 120.483C104.31 120.128 104.915 119.609 105.337 118.979C105.759 118.35 105.982 117.632 105.983 116.901V66.6Z" stroke="#6D5DCD" stroke-width="12"/>
<path d="M103.154 9.40973C101.406 7.8668 99.0363 7 96.5649 7H31.3352C28.8638 7 26.4936 7.8668 24.7461 9.40973C22.9985 10.9527 22.0167 13.0453 22.0167 15.2273V63.6667L105.883 43.7284V15.2273C105.883 13.0453 104.902 10.9527 103.154 9.40973Z" stroke="#6D5DCD" stroke-width="12"/>
</svg>
